<svg width="50" height="58" viewBox="0 0 50 58" fill="none" xmlns="http://www.w3.org/2000/svg">
<path opacity="0.15" d="M24.4645 0.787078C24.773 0.609707 25.1526 0.609707 25.4612 0.787078L49.2079 14.4373C49.5182 14.6156 49.7095 14.9463 49.7095 15.3042V42.597C49.7095 42.9549 49.5182 43.2856 49.2079 43.464L25.4612 57.1141C25.1526 57.2915 24.773 57.2915 24.4645 57.1141L0.717783 43.464C0.407457 43.2856 0.216141 42.9549 0.216141 42.597V15.3042C0.216141 14.9463 0.407457 14.6156 0.717784 14.4373L24.4645 0.787078Z" fill="#37D0D6"/>
<path fill-rule="evenodd" clip-rule="evenodd" d="M12.1667 29C12.1667 21.9123 17.9123 16.1666 25 16.1666C32.0876 16.1666 37.8333 21.9123 37.8333 29C37.8333 36.0876 32.0876 41.8333 25 41.8333C17.9123 41.8333 12.1667 36.0876 12.1667 29ZM25 22.1427C21.2129 22.1427 18.1428 25.2128 18.1428 28.9999C18.1428 32.7871 21.2129 35.8571 25 35.8571C28.7871 35.8571 31.8572 32.7871 31.8572 28.9999C31.8572 25.2128 28.7871 22.1427 25 22.1427ZM15.3999 28.9999C15.3999 23.698 19.698 19.3998 25 19.3998C30.302 19.3998 34.6001 23.698 34.6001 28.9999C34.6001 34.3019 30.302 38.6 25 38.6C19.698 38.6 15.3999 34.3019 15.3999 28.9999ZM20.7739 29C20.7739 26.6659 22.666 24.7738 25 24.7738C27.334 24.7738 29.2261 26.6659 29.2261 29C29.2261 31.334 27.334 33.2261 25 33.2261C22.666 33.2261 20.7739 31.334 20.7739 29ZM27.0354 28.9998C27.0354 30.124 26.1241 31.0352 25 31.0352C23.8758 31.0352 22.9646 30.124 22.9646 28.9998C22.9646 27.8757 23.8758 26.9644 25 26.9644C26.1241 26.9644 27.0354 27.8757 27.0354 28.9998Z" fill="#1E9094"/>
</svg>
